<svg id="visual" viewBox="0 0 900 600" width="900" height="600" xmlns="http://www.w3.org/2000/svg" xmlns:xlink="http://www.w3.org/1999/xlink" version="1.1"><rect x="0" y="0" width="900" height="600" fill="#fafafa"></rect><path d="M0 106L18.8 108.2C37.7 110.3 75.3 114.7 112.8 113C150.3 111.3 187.7 103.7 225.2 123.5C262.7 143.3 300.3 190.7 337.8 189.7C375.3 188.7 412.7 139.3 450.2 123.8C487.7 108.3 525.3 126.7 562.8 143.8C600.3 161 637.7 177 675.2 186.7C712.7 196.3 750.3 199.7 787.8 187.2C825.3 174.7 862.7 146.3 881.3 132.2L900 118L900 601L881.3 601C862.7 601 825.3 601 787.8 601C750.3 601 712.7 601 675.2 601C637.7 601 600.3 601 562.8 601C525.3 601 487.7 601 450.2 601C412.7 601 375.3 601 337.8 601C300.3 601 262.7 601 225.2 601C187.7 601 150.3 601 112.8 601C75.3 601 37.7 601 18.8 601L0 601Z" fill="#f7f7f7"></path><path d="M0 284L18.8 264.2C37.7 244.3 75.3 204.7 112.8 190.7C150.3 176.7 187.7 188.3 225.2 202.5C262.7 216.7 300.3 233.3 337.8 236.5C375.3 239.7 412.7 229.3 450.2 222.5C487.7 215.7 525.3 212.3 562.8 204.7C600.3 197 637.7 185 675.2 191.8C712.7 198.7 750.3 224.3 787.8 239.2C825.3 254 862.7 258 881.3 260L900 262L900 601L881.3 601C862.7 601 825.3 601 787.8 601C750.3 601 712.7 601 675.2 601C637.7 601 600.3 601 562.8 601C525.3 601 487.7 601 450.2 601C412.7 601 375.3 601 337.8 601C300.3 601 262.7 601 225.2 601C187.7 601 150.3 601 112.8 601C75.3 601 37.7 601 18.8 601L0 601Z" fill="#f9f1f1"></path><path d="M0 265L18.8 265.8C37.7 266.7 75.3 268.3 112.8 279C150.3 289.7 187.7 309.3 225.2 316.8C262.7 324.3 300.3 319.7 337.8 313.2C375.3 306.7 412.7 298.3 450.2 286.3C487.7 274.3 525.3 258.7 562.8 254.7C600.3 250.7 637.7 258.3 675.2 271.7C712.7 285 750.3 304 787.8 304.5C825.3 305 862.7 287 881.3 278L900 269L900 601L881.3 601C862.7 601 825.3 601 787.8 601C750.3 601 712.7 601 675.2 601C637.7 601 600.3 601 562.8 601C525.3 601 487.7 601 450.2 601C412.7 601 375.3 601 337.8 601C300.3 601 262.7 601 225.2 601C187.7 601 150.3 601 112.8 601C75.3 601 37.7 601 18.8 601L0 601Z" fill="#faebeb"></path><path d="M0 304L18.8 304C37.7 304 75.3 304 112.8 311.5C150.3 319 187.7 334 225.2 326.8C262.7 319.7 300.3 290.3 337.8 293.3C375.3 296.3 412.7 331.7 450.2 344.3C487.7 357 525.3 347 562.8 339.8C600.3 332.7 637.7 328.3 675.2 315.5C712.7 302.7 750.3 281.3 787.8 275.3C825.3 269.3 862.7 278.7 881.3 283.3L900 288L900 601L881.3 601C862.7 601 825.3 601 787.8 601C750.3 601 712.7 601 675.2 601C637.7 601 600.3 601 562.8 601C525.3 601 487.7 601 450.2 601C412.7 601 375.3 601 337.8 601C300.3 601 262.7 601 225.2 601C187.7 601 150.3 601 112.8 601C75.3 601 37.7 601 18.8 601L0 601Z" fill="#fbe5e5"></path><path d="M0 403L18.8 403C37.7 403 75.3 403 112.8 395.7C150.3 388.3 187.7 373.7 225.2 363.7C262.7 353.7 300.3 348.3 337.8 344.7C375.3 341 412.7 339 450.2 345.3C487.7 351.7 525.3 366.3 562.8 379C600.3 391.7 637.7 402.3 675.2 406.7C712.7 411 750.3 409 787.8 409.2C825.3 409.3 862.7 411.7 881.3 412.8L900 414L900 601L881.3 601C862.7 601 825.3 601 787.8 601C750.3 601 712.7 601 675.2 601C637.7 601 600.3 601 562.8 601C525.3 601 487.7 601 450.2 601C412.7 601 375.3 601 337.8 601C300.3 601 262.7 601 225.2 601C187.7 601 150.3 601 112.8 601C75.3 601 37.7 601 18.8 601L0 601Z" fill="#fddfdf"></path><path d="M0 456L18.8 457.8C37.7 459.7 75.3 463.3 112.8 459C150.3 454.7 187.7 442.3 225.2 438.8C262.7 435.3 300.3 440.7 337.8 442.7C375.3 444.7 412.7 443.3 450.2 447.5C487.7 451.7 525.3 461.3 562.8 461.8C600.3 462.3 637.7 453.7 675.2 450.3C712.7 447 750.3 449 787.8 448.3C825.3 447.7 862.7 444.3 881.3 442.7L900 441L900 601L881.3 601C862.7 601 825.3 601 787.8 601C750.3 601 712.7 601 675.2 601C637.7 601 600.3 601 562.8 601C525.3 601 487.7 601 450.2 601C412.7 601 375.3 601 337.8 601C300.3 601 262.7 601 225.2 601C187.7 601 150.3 601 112.8 601C75.3 601 37.7 601 18.8 601L0 601Z" fill="#fed9d9"></path><path d="M0 492L18.8 484.5C37.7 477 75.3 462 112.8 464.2C150.3 466.3 187.7 485.7 225.2 492.7C262.7 499.7 300.3 494.3 337.8 494.8C375.3 495.3 412.7 501.7 450.2 496.2C487.7 490.7 525.3 473.3 562.8 468.3C600.3 463.3 637.7 470.7 675.2 477.3C712.7 484 750.3 490 787.8 490.8C825.3 491.7 862.7 487.3 881.3 485.2L900 483L900 601L881.3 601C862.7 601 825.3 601 787.8 601C750.3 601 712.7 601 675.2 601C637.7 601 600.3 601 562.8 601C525.3 601 487.7 601 450.2 601C412.7 601 375.3 601 337.8 601C300.3 601 262.7 601 225.2 601C187.7 601 150.3 601 112.8 601C75.3 601 37.7 601 18.8 601L0 601Z" fill="#fed3d3"></path><path d="M0 529L18.8 533C37.7 537 75.3 545 112.8 550.3C150.3 555.7 187.7 558.3 225.2 551.3C262.7 544.3 300.3 527.7 337.8 522.8C375.3 518 412.7 525 450.2 523.5C487.7 522 525.3 512 562.8 513.2C600.3 514.3 637.7 526.7 675.2 536C712.7 545.3 750.3 551.7 787.8 551.3C825.3 551 862.7 544 881.3 540.5L900 537L900 601L881.3 601C862.7 601 825.3 601 787.8 601C750.3 601 712.7 601 675.2 601C637.7 601 600.3 601 562.8 601C525.3 601 487.7 601 450.2 601C412.7 601 375.3 601 337.8 601C300.3 601 262.7 601 225.2 601C187.7 601 150.3 601 112.8 601C75.3 601 37.7 601 18.8 601L0 601Z" fill="#ffcdcd"></path></svg>